{"title":"Mogambo (1953) John Ford Clark Gable Grace Kelly Ava Gardner Dua","uid":4489136,"size":954347520,"categoryP":"video","categoryS":"movies","magnet":"?xt=urn:btih:72287c8f2566262d9403fa3efbc8bf2f76bde4cb&amp;dn=Mogambo+%281953%29+John+Ford+Clark+Gable+Grace+Kelly+Ava+Gardner+Dua&amp;tr=udp%3A%2F%2Ftracker.openbittorrent.com%3A80&amp;tr=udp%3A%2F%2Fopen.demonii.com%3A1337&amp;tr=udp%3A%2F%2Ftracker.coppersurfer.tk%3A6969&amp;tr=udp%3A%2F%2Fexodus.desync.com%3A6969","seeders":6,"leechers":0,"uploader":"johnefp","files":-1,"time":1225903100,"description":"Dual sound:Eng-Span\n\nVictor Marswell runs a big game trapping company in Kenya. Eloise Kelly is ditched there, and an immediate attraction happens between them.\n\nIMBD &lt;a href=&quot;\nhttp://www.imdb.com/title/tt0046085/&quot; rel=&quot;nofollow&quot; target=&quot;_NEW&quot;&gt;\nhttp://www.imdb.com/title/tt0046085/&lt;/a&gt;\n\nSUBS &lt;a href=&quot;\nhttp://www.opensubtitles.org/en/search/sublanguageid-all/idmovie-7795&quot; rel=&quot;nofollow&quot; target=&quot;_NEW&quot;&gt;\nhttp://www.opensubtitles.org/en/search/sublanguageid-all/idmovie-7795&lt;/a&gt;\n\nDirector:\nJohn Ford\n\n\n\tClark Gable\t... \tVictor Marswell\n\n\tAva Gardner\t... \tHoney Bear Kelly\n\n\tGrace Kelly\t... \tLinda Nordley\n\tDonald Sinden\t... \tDonald Nordley\n\tPhilip Stainton\t... \tJohn Brown-Pryce\n\n   Video\n      Format : MPEG-4 Visual\n      Format settings, BVOP : Yes\n      Format settings, QPel : No\n      Format settings, GMC : No warppoints\n      Format settings, Matrix : Default\n      Muxing mode : Packed bitstream\n      Codec ID : DX50\n      Codec ID/Hint : DivX 5\n      Duration : 1h 51mn\n      Bit rate : 1 001 Kbps\n      Width : 640 pixels\n      Height : 464 pixels\n      Display aspect ratio : 1.379\n      Frame rate : 25.000 fps\n      Resolution : 24 bits\n      Colorimetry : 4:2:0\n      Scan type : Progressive\n      Bits/(Pixel*Frame) : 0.135\n      Stream size : 797 MiB (88%)\n   Audio\n      Format : MPEG Audio\n      Format version : Version 2\n      Format profile : Layer 3\n      Codec ID : 55\n      Codec ID/Hint : MP3\n      Duration : 1h 51mn\n      Bit rate mode : Constant\n      Bit rate : 64.0 Kbps\n      Channel(s) : 2 channels\n      Sampling rate : 24.0 KHz\n      Resolution : 16 bits\n      Stream size : 51.0 MiB (6%)\n      Alignment : Split accross interleaves\n      Interleave, duration : 40 ms (1.00 video frame)\n      Interleave, preload duration : 500 ms\n   Audio\n      Format : MPEG Audio\n      Format version : Version 2\n      Format profile : Layer 3\n      Codec ID : 55\n      Codec ID/Hint : MP3\n      Duration : 1h 51mn\n      Bit rate mode : Constant\n      Bit rate : 64.0 Kbps\n      Channel(s) : 2 channels\n      Sampling rate : 24.0 KHz\n      Resolution : 16 bits\n      Stream size : 51.0 MiB (6%)\n      Alignment : Split accross interleaves\n      Interleave, duration : 40 ms (1.00 video frame)\n      Interleave, preload duration : 500 ms\n\n    Enjoy  and  Seed\n","torrent":{"xt":"urn:btih:72287c8f2566262d9403fa3efbc8bf2f76bde4cb","amp;dn":"Mogambo+%281953%29+John+Ford+Clark+Gable+Grace+Kelly+Ava+Gardner+Dua","amp;tr":["udp%3A%2F%2Ftracker.openbittorrent.com%3A80","udp%3A%2F%2Fopen.demonii.com%3A1337","udp%3A%2F%2Ftracker.coppersurfer.tk%3A6969","udp%3A%2F%2Fexodus.desync.com%3A6969"],"infoHash":"72287c8f2566262d9403fa3efbc8bf2f76bde4cb","infoHashBuffer":{"type":"Buffer","data":[114,40,124,143,37,102,38,45,148,3,250,62,251,200,191,47,118,189,228,203]},"announce":[],"urlList":[]}}